<svg width="23" height="18" viewBox="0 0 23 18" fill="none" xmlns="http://www.w3.org/2000/svg">
<path d="M8.72157 0.199219C8.4655 0.199219 8.20961 0.301541 8.03032 0.480828L0.350323 8.18643C-0.0336038 8.57035 -0.0336038 9.18483 0.350323 9.56874L8.03032 17.2743C8.38871 17.6327 9.05423 17.6327 9.41263 17.2743C9.79656 16.8904 9.79656 16.2759 9.41263 15.892L3.37103 9.85043H22.0078C22.5455 9.85043 22.9807 9.41525 22.9807 8.87758C22.9807 8.33991 22.5455 7.90474 22.0078 7.90474H3.37103L9.38703 1.86314C9.77096 1.47921 9.77096 0.864736 9.38703 0.480828C9.23328 0.301541 8.97739 0.199219 8.72134 0.199219H8.72157Z" fill="#272727"/>
</svg>
