<svg width="9" height="16" viewBox="0 0 9 16" fill="none" xmlns="http://www.w3.org/2000/svg">
<path d="M2.222 8.00042L8.591 1.45517C8.64344 1.40242 8.68489 1.3398 8.71297 1.27093C8.74105 1.20205 8.75518 1.12829 8.75457 1.05392C8.75395 0.979547 8.73859 0.906034 8.70937 0.837636C8.68015 0.769238 8.63766 0.707314 8.58436 0.655446C8.53105 0.603578 8.46799 0.562796 8.39882 0.535461C8.32965 0.508126 8.25574 0.49478 8.18138 0.496196C8.10701 0.497611 8.03367 0.513761 7.96559 0.543709C7.89751 0.573657 7.83605 0.61681 7.78475 0.670669L1.03475 7.60817C0.932585 7.71318 0.875422 7.85391 0.875422 8.00042C0.875422 8.14693 0.932585 8.28766 1.03475 8.39267L7.78475 15.3302C7.83605 15.384 7.89751 15.4272 7.96559 15.4571C8.03367 15.4871 8.10701 15.5032 8.18138 15.5046C8.25574 15.5061 8.32965 15.4927 8.39882 15.4654C8.46799 15.438 8.53105 15.3973 8.58436 15.3454C8.63766 15.2935 8.68015 15.2316 8.70937 15.1632C8.73859 15.0948 8.75395 15.0213 8.75457 14.9469C8.75518 14.8725 8.74105 14.7988 8.71297 14.7299C8.68489 14.661 8.64344 14.5984 8.591 14.5457L2.222 8.00042Z" fill="#272727"/>
</svg>
