<svg width="22" height="22" viewBox="0 0 22 22" fill="none" xmlns="http://www.w3.org/2000/svg">
<path d="M1.86079 16.8025C1.86079 17.1325 1.93413 17.4717 2.08996 17.8017C2.24579 18.1317 2.44746 18.4434 2.71329 18.7367C3.16246 19.2317 3.65746 19.5892 4.21663 19.8184C4.76663 20.0475 5.36246 20.1667 6.00413 20.1667C6.93913 20.1667 7.93829 19.9467 8.99246 19.4975C10.0466 19.0484 11.1008 18.4434 12.1458 17.6825C13.2 16.9125 14.1991 16.06 15.1525 15.1159C16.0966 14.1625 16.9491 13.1634 17.71 12.1184C18.4616 11.0734 19.0666 10.0284 19.5066 8.99254C19.9466 7.94754 20.1666 6.94837 20.1666 5.99504C20.1666 5.37171 20.0566 4.77587 19.8366 4.22587C19.6166 3.66671 19.2683 3.15337 18.7825 2.69504C18.1958 2.11754 17.5541 1.83337 16.8758 1.83337C16.6191 1.83337 16.3625 1.88837 16.1333 1.99837C15.895 2.10837 15.6841 2.27337 15.5191 2.51171L13.3925 5.50921C13.2275 5.73837 13.1083 5.94921 13.0258 6.15087C12.9433 6.34337 12.8975 6.53587 12.8975 6.71004C12.8975 6.93004 12.9616 7.15004 13.09 7.36087C13.2091 7.57171 13.3833 7.79171 13.6033 8.01171L14.3 8.73587C14.4008 8.83671 14.4466 8.95587 14.4466 9.10254C14.4466 9.17587 14.4375 9.24004 14.4191 9.31337C14.3916 9.38671 14.3641 9.44171 14.3458 9.49671C14.1808 9.79921 13.8966 10.1934 13.4933 10.67C13.0808 11.1467 12.6408 11.6325 12.1641 12.1184C11.6691 12.6042 11.1925 13.0534 10.7066 13.4659C10.23 13.8692 9.83579 14.1442 9.52413 14.3092C9.47829 14.3275 9.42329 14.355 9.35913 14.3825C9.28579 14.41 9.21246 14.4192 9.12996 14.4192C8.97413 14.4192 8.85496 14.3642 8.75413 14.2634L8.05746 13.5759C7.82829 13.3467 7.60829 13.1725 7.39746 13.0625C7.18663 12.9342 6.97579 12.87 6.74663 12.87C6.57246 12.87 6.38913 12.9067 6.18746 12.9892C5.98579 13.0717 5.77496 13.1909 5.54579 13.3467L2.51163 15.5009C2.27329 15.6659 2.10829 15.8584 2.00746 16.0875C1.91579 16.3167 1.86079 16.5459 1.86079 16.8025Z" stroke="#292D32" stroke-miterlimit="10"/>
</svg>
