<svg width="21" height="22" viewBox="0 0 21 22" fill="none" xmlns="http://www.w3.org/2000/svg">
<path d="M10.5 0.802246C4.81296 0.802246 0.214784 5.40029 0.214784 11.0875C0.214784 16.7746 4.81283 21.3727 10.5 21.3727C16.1872 21.3727 20.7852 16.7746 20.7852 11.0875C20.7852 5.40029 16.1872 0.802246 10.5 0.802246ZM16.0055 7.88075L8.80583 15.1407C8.68479 15.2615 8.50324 15.322 8.38221 15.322C8.26117 15.322 8.07962 15.2615 7.95859 15.1405L4.99404 12.176C4.75197 11.9339 4.75197 11.571 4.99404 11.329C5.23611 11.087 5.59896 11.0869 5.841 11.329L8.38193 13.8699L15.1584 7.0935C15.4004 6.85143 15.7633 6.85143 16.0053 7.0935C16.2476 7.33582 16.2476 7.6384 16.0056 7.88049L16.0055 7.88075Z" fill="white"/>
</svg>
