<svg width="22" height="22" viewBox="0 0 22 22" fill="none" xmlns="http://www.w3.org/2000/svg">
<path d="M11 15.9041C11.8252 15.9041 12.4942 15.2351 12.4942 14.4099C12.4942 13.5847 11.8252 12.9158 11 12.9158C10.1748 12.9158 9.50583 13.5847 9.50583 14.4099C9.50583 15.2351 10.1748 15.9041 11 15.9041Z" fill="white"/>
<path d="M16.7567 8.73575V7.58992C16.7567 5.11492 16.1608 1.83325 11 1.83325C5.83917 1.83325 5.24333 5.11492 5.24333 7.58992V8.73575C2.67667 9.05658 1.83333 10.3583 1.83333 13.5574V15.2624C1.83333 19.0208 2.97917 20.1666 6.7375 20.1666H15.2625C19.0208 20.1666 20.1667 19.0208 20.1667 15.2624V13.5574C20.1667 10.3583 19.3233 9.05658 16.7567 8.73575ZM11 17.1783C9.46917 17.1783 8.23167 15.9316 8.23167 14.4099C8.23167 12.8791 9.47833 11.6416 11 11.6416C12.5217 11.6416 13.7683 12.8883 13.7683 14.4099C13.7683 15.9408 12.5308 17.1783 11 17.1783ZM6.7375 8.65325C6.66417 8.65325 6.6 8.65325 6.52667 8.65325V7.58992C6.52667 4.90408 7.2875 3.11659 11 3.11659C14.7125 3.11659 15.4733 4.90408 15.4733 7.58992V8.66242C15.4 8.66242 15.3358 8.66242 15.2625 8.66242H6.7375V8.65325Z" fill="white"/>
</svg>
