<svg width="40" height="40" viewBox="0 0 40 40" fill="none" xmlns="http://www.w3.org/2000/svg">
<path d="M20 3L9.5 8V15L11 21.5L14.5 25.5L20 28L25 25.5L28.5 22.5L30 18V7.5L20 3Z" fill="#FFD700"/>
<path d="M31 7.67286C31 7.47733 30.8862 7.29988 30.7085 7.2184L20.2085 2.40589C20.0761 2.34517 19.9239 2.34517 19.7915 2.40589L9.29151 7.2184C9.11383 7.29988 8.99999 7.47733 8.99999 7.67286V15.7106C9.00446 18.2037 9.72257 20.6434 11.0692 22.7414C12.4161 24.8397 14.3353 26.5084 16.6 27.5506L19.7935 29.014C19.9259 29.0749 20.0781 29.0749 20.2105 29.014L23.4 27.5506C25.6647 26.5084 27.5839 24.8397 28.9308 22.7414C30.2774 20.6434 30.9955 18.2037 31 15.7106L31 7.67286ZM30 15.7106C29.9962 18.0121 29.3337 20.2646 28.0906 22.2014C26.8478 24.1385 25.0761 25.6793 22.9855 26.6418L20 28.0103L17.0145 26.6418C14.9239 25.6793 13.1522 24.1385 11.9094 22.2014C10.6663 20.2644 10.0038 18.0119 10 15.7106V7.99401L20 3.41052L30 7.99401V15.7106Z" fill="#EFEFEF"/>
<path d="M35.4337 25.487L31.3308 21.3841V21.3839C32.0993 19.591 32.4973 17.6611 32.5002 15.7104V6.71045C32.5002 6.51491 32.3864 6.33746 32.2087 6.25598L20.2087 0.755985C20.0763 0.695271 19.9241 0.695271 19.7917 0.755985L7.79174 6.25598C7.61406 6.33746 7.50022 6.51491 7.50022 6.71045V15.7104C7.50335 17.6611 7.90089 19.591 8.66919 21.3839L4.56919 25.4868V25.487C4.44308 25.6129 4.39375 25.7966 4.43951 25.9689C4.48527 26.141 4.61919 26.2761 4.79129 26.323L8.40581 27.3075L9.39038 30.922L9.39015 30.9218C9.4377 31.0932 9.5723 31.2265 9.74417 31.2718C9.78614 31.2832 9.82922 31.289 9.87274 31.2888C10.0053 31.2888 10.1323 31.2361 10.2261 31.1424L13.7421 27.6263C14.4468 28.1209 15.1944 28.5517 15.9756 28.9133L19.7941 30.6633C19.9265 30.724 20.0787 30.724 20.2111 30.6633L24.0296 28.9133C24.8109 28.5517 25.5584 28.1209 26.2631 27.6263L29.7792 31.1424C29.8729 31.2361 30.0002 31.2888 30.1327 31.2888C30.176 31.289 30.2193 31.2832 30.2611 31.2718C30.433 31.2265 30.5678 31.0932 30.6151 30.9218L31.5997 27.3073L35.2142 26.3227V26.323C35.3861 26.2761 35.5202 26.141 35.566 25.9689C35.6117 25.7966 35.5622 25.6129 35.4361 25.487H35.4337ZM10.1263 29.8274L9.2928 26.769C9.24615 26.5986 9.11311 26.4656 8.9428 26.419L5.88343 25.5844L9.12137 22.3464C10.0519 24.1534 11.3499 25.746 12.9319 27.0219L10.1263 29.8274ZM23.6109 28.0053L20.0003 29.6604L16.3898 28.0055V28.0053C14.0383 26.923 12.0458 25.1899 10.6481 23.0111C9.25011 20.8326 8.5048 18.2991 8.50057 15.7106V7.03171L20.0006 1.76073L31.5006 7.03171V15.7106C31.4963 18.2992 30.7513 20.8327 29.353 23.0111C27.955 25.1899 25.9626 26.923 23.6113 28.0053L23.6109 28.0053ZM31.0611 26.4178C30.8908 26.4647 30.7578 26.5977 30.7111 26.7678L29.8777 29.8263L27.0721 27.0207V27.0209C28.6542 25.7448 29.9519 24.1524 30.8826 22.3455L34.1205 25.5834L31.0611 26.4178Z" fill="#EFEFEF"/>
<path d="M12 15.5C12 17.6217 12.8429 19.6565 14.3431 21.1569C15.8435 22.6571 17.8783 23.5 20 23.5C22.1217 23.5 24.1565 22.6571 25.6569 21.1569C27.1571 19.6565 28 17.6217 28 15.5C28 13.3783 27.1571 11.3435 25.6569 9.84309C24.1565 8.34286 22.1217 7.5 20 7.5C17.879 7.50246 15.8458 8.34623 14.346 9.846C12.8462 11.3458 12.0025 13.379 12 15.5ZM27 15.5C27 17.3565 26.2625 19.137 24.9498 20.4498C23.637 21.7625 21.8565 22.5 20 22.5C18.1435 22.5 16.363 21.7625 15.0502 20.4498C13.7375 19.137 13 17.3565 13 15.5C13 13.6435 13.7375 11.863 15.0502 10.5502C16.363 9.23749 18.1435 8.5 20 8.5C21.8558 8.50201 23.6353 9.24017 24.9475 10.5525C26.2598 11.8647 26.998 13.6442 27 15.5Z" fill="#4F98CA"/>
<path d="M19.6412 10.344L18.6638 13.3524H15.5002C15.2837 13.3524 15.0915 13.4919 15.0245 13.698C14.9575 13.904 15.031 14.1297 15.2062 14.2569L17.7667 16.1165L16.7893 19.1249C16.7223 19.331 16.7955 19.5566 16.971 19.6841C17.1462 19.8113 17.3835 19.8113 17.5587 19.6839L20.1168 17.8245L22.6764 19.6841V19.6839C22.8516 19.8113 23.0889 19.8113 23.2641 19.6841C23.4393 19.5566 23.5127 19.331 23.4458 19.1249L22.4667 16.1165L25.0257 14.2569C25.2007 14.1297 25.2741 13.9044 25.2076 13.6986C25.1411 13.4928 24.9495 13.3531 24.7332 13.3524H21.5696L20.5922 10.344C20.5248 10.1388 20.3333 10 20.1172 10C19.9014 10 19.7096 10.1388 19.6422 10.344L19.6412 10.344ZM20.7311 14.0069C20.7981 14.213 20.9901 14.3525 21.2066 14.3525H23.1941L21.586 15.521C21.411 15.6482 21.3376 15.8739 21.4045 16.0799L22.0166 17.9705L20.4106 16.8025C20.2354 16.675 19.9979 16.675 19.8227 16.8025L18.2167 17.9705L18.8307 16.0801V16.0799C18.8977 15.8739 18.8242 15.6482 18.6492 15.521L17.0392 14.3525H19.0267C19.2432 14.3525 19.4352 14.213 19.5021 14.0069L20.1166 12.1165L20.7311 14.0069Z" fill="#4F98CA"/>
<path d="M19.5 14L20 12L21 14L23.5 14.5L21.5 16L22 18L20 17L18 18L18.5 16L17 14H19.5Z" fill="#4F98CA" stroke="#4F98CA"/>
</svg>
