<svg width="32" height="31" viewBox="0 0 32 31" fill="none" xmlns="http://www.w3.org/2000/svg">
<path d="M15.5773 2.28955L5.07727 7.28955V14.2896L6.57727 20.7896L10.0773 24.7896L15.5773 27.2896L20.5773 24.7896L24.0773 21.7896L25.5773 17.2896V6.78955L15.5773 2.28955Z" fill="#C0C0C0"/>
<path d="M26.5773 6.96242C26.5773 6.76688 26.4634 6.58943 26.2858 6.50795L15.7858 1.69544C15.6534 1.63472 15.5012 1.63472 15.3688 1.69544L4.86879 6.50795C4.69111 6.58943 4.57727 6.76688 4.57727 6.96242V15.0001C4.58173 17.4932 5.29984 19.9329 6.64647 22.031C7.99332 24.1292 9.91252 25.798 12.1773 26.8401L15.3708 28.3035C15.5032 28.3644 15.6554 28.3644 15.7878 28.3035L18.9773 26.8401C21.242 25.798 23.1612 24.1292 24.5081 22.031C25.8547 19.933 26.5728 17.4933 26.5773 15.0001L26.5773 6.96242ZM25.5773 15.0001C25.5735 17.3017 24.911 19.5541 23.6679 21.491C22.425 23.428 20.6534 24.9689 18.5628 25.9314L15.5773 27.2999L12.5918 25.9314C10.5012 24.9689 8.7295 23.428 7.48664 21.491C6.24356 19.554 5.58104 17.3015 5.57727 15.0001V7.28356L15.5773 2.70007L25.5773 7.28356V15.0001Z" fill="#EFEFEF"/>
<path d="M31.011 24.7766L26.9081 20.6737V20.6734C27.6766 18.8806 28.0746 16.9507 28.0775 15V6C28.0775 5.80446 27.9637 5.62701 27.786 5.54554L15.786 0.0455357C15.6536 -0.0151786 15.5014 -0.0151786 15.369 0.0455357L3.36901 5.54554C3.19133 5.62701 3.07749 5.80446 3.07749 6V15C3.08062 16.9507 3.47816 18.8806 4.24647 20.6734L0.146466 24.7763V24.7766C0.0203513 24.9025 -0.0289802 25.0862 0.0167798 25.2585C0.0625387 25.4306 0.196466 25.5656 0.368563 25.6125L3.98308 26.5971L4.96765 30.2116L4.96743 30.2114C5.01497 30.3828 5.14957 30.516 5.32144 30.5614C5.36341 30.5727 5.40649 30.5786 5.45001 30.5783C5.5826 30.5783 5.70961 30.5257 5.80336 30.4319L9.31942 26.9158C10.0241 27.4105 10.7716 27.8413 11.5529 28.2029L15.3714 29.9529C15.5038 30.0136 15.656 30.0136 15.7884 29.9529L19.6069 28.2029C20.3882 27.8413 21.1357 27.4105 21.8404 26.9158L25.3564 30.4319C25.4502 30.5257 25.5774 30.5783 25.71 30.5783C25.7533 30.5786 25.7966 30.5727 25.8384 30.5614C26.0102 30.5161 26.1451 30.3828 26.1924 30.2114L27.177 26.5969L30.7915 25.6123V25.6125C30.9633 25.5656 31.0975 25.4306 31.1432 25.2585C31.189 25.0862 31.1395 24.9025 31.0133 24.7766H31.011ZM5.70356 29.117L4.87007 26.0585C4.82342 25.8882 4.69039 25.7552 4.52007 25.7085L1.4607 24.8739L4.69864 21.636C5.62921 23.4429 6.92721 25.0355 8.50916 26.3114L5.70356 29.117ZM19.1881 27.2949L15.5776 28.95L11.9671 27.2951V27.2949C9.61556 26.2125 7.6231 24.4794 6.22539 22.3007C4.82739 20.1221 4.08207 17.5886 4.07784 15.0001V6.32126L15.5778 1.05028L27.0778 6.32126V15.0001C27.0736 17.5887 26.3285 20.1222 24.9303 22.3007C23.5323 24.4795 21.5399 26.2125 19.1886 27.2949L19.1881 27.2949ZM26.6384 25.7074C26.4681 25.7542 26.3351 25.8873 26.2884 26.0574L25.4549 29.1158L22.6493 26.3102V26.3104C24.2315 25.0343 25.5292 23.4419 26.4598 21.635L29.6978 24.873L26.6384 25.7074Z" fill="#EFEFEF"/>
<path d="M7.57727 14.7896C7.57727 16.9112 8.42013 18.946 9.92036 20.4465C11.4208 21.9467 13.4556 22.7896 15.5773 22.7896C17.6989 22.7896 19.7337 21.9467 21.2342 20.4465C22.7344 18.946 23.5773 16.9112 23.5773 14.7896C23.5773 12.6679 22.7344 10.6331 21.2342 9.13264C19.7337 7.63241 17.6989 6.78955 15.5773 6.78955C13.4563 6.79201 11.423 7.63578 9.92327 9.13555C8.4235 10.6353 7.57973 12.6686 7.57727 14.7896ZM22.5773 14.7896C22.5773 16.646 21.8398 18.4266 20.527 19.7393C19.2143 21.0521 17.4337 21.7896 15.5773 21.7896C13.7208 21.7896 11.9402 21.0521 10.6275 19.7393C9.31476 18.4266 8.57727 16.646 8.57727 14.7896C8.57727 12.9331 9.31476 11.1525 10.6275 9.83978C11.9402 8.52704 13.7208 7.78955 15.5773 7.78955C17.4331 7.79156 19.2125 8.52972 20.5248 9.84201C21.8371 11.1543 22.5753 12.9337 22.5773 14.7896Z" fill="white"/>
<path d="M19.2227 13.083C19.2227 13.3727 19.1836 13.6234 19.1055 13.835C19.0273 14.0433 18.9215 14.2223 18.7881 14.3721C18.6546 14.5218 18.4967 14.6488 18.3145 14.7529C18.1354 14.8538 17.9434 14.9434 17.7383 15.0215C17.5332 15.0996 17.32 15.1696 17.0986 15.2314C16.8805 15.2933 16.6641 15.3584 16.4492 15.4268C16.2344 15.4951 16.0277 15.5732 15.8291 15.6611C15.6305 15.749 15.4515 15.8581 15.292 15.9883C15.1325 16.1152 14.9958 16.2699 14.8818 16.4521C14.7679 16.6312 14.6898 16.8477 14.6475 17.1016H19.2227V18H12.5625C12.6341 17.5508 12.7367 17.1634 12.8701 16.8379C13.0036 16.5091 13.1582 16.2275 13.334 15.9932C13.5098 15.7588 13.7002 15.5635 13.9053 15.4072C14.1136 15.2477 14.3268 15.1143 14.5449 15.0068C14.763 14.8962 14.9827 14.805 15.2041 14.7334C15.4255 14.6585 15.6387 14.5869 15.8438 14.5186C16.0488 14.4502 16.2393 14.3786 16.415 14.3037C16.5941 14.2256 16.7487 14.1296 16.8789 14.0156C17.0124 13.9017 17.1165 13.7633 17.1914 13.6006C17.2663 13.4346 17.3037 13.2295 17.3037 12.9854C17.3037 12.764 17.2663 12.5703 17.1914 12.4043C17.1165 12.2383 17.014 12.0999 16.8838 11.9893C16.7536 11.8786 16.599 11.7956 16.4199 11.7402C16.2441 11.6849 16.0553 11.6572 15.8535 11.6572C15.6419 11.6572 15.445 11.6963 15.2627 11.7744C15.0837 11.8525 14.9209 11.9632 14.7744 12.1064C14.6312 12.2464 14.5059 12.4157 14.3984 12.6143C14.2943 12.8128 14.2145 13.0342 14.1592 13.2783L12.6602 12.4482C12.7936 12.1748 12.9824 11.9372 13.2266 11.7354C13.474 11.5335 13.7474 11.3659 14.0469 11.2324C14.3464 11.0957 14.6572 10.9948 14.9795 10.9297C15.305 10.8613 15.6126 10.8271 15.9023 10.8271C16.1823 10.8271 16.459 10.8385 16.7324 10.8613C17.0059 10.8841 17.2646 10.9264 17.5088 10.9883C17.7562 11.0501 17.984 11.1348 18.1924 11.2422C18.4007 11.3496 18.5814 11.488 18.7344 11.6572C18.8874 11.8232 19.0062 12.0234 19.0908 12.2578C19.1787 12.4922 19.2227 12.7673 19.2227 13.083Z" fill="white"/>
</svg>
