<svg width="32" height="31" viewBox="0 0 32 31" fill="none" xmlns="http://www.w3.org/2000/svg">
<path d="M15.5773 2.28955L5.07727 7.28955V14.2896L6.57727 20.7896L10.0773 24.7896L15.5773 27.2896L20.5773 24.7896L24.0773 21.7896L25.5773 17.2896V6.78955L15.5773 2.28955Z" fill="#CD7F32"/>
<path d="M26.5773 6.96242C26.5773 6.76688 26.4634 6.58943 26.2858 6.50795L15.7858 1.69544C15.6534 1.63472 15.5012 1.63472 15.3688 1.69544L4.86879 6.50795C4.69111 6.58943 4.57727 6.76688 4.57727 6.96242V15.0001C4.58173 17.4932 5.29984 19.9329 6.64647 22.031C7.99332 24.1292 9.91252 25.798 12.1773 26.8401L15.3708 28.3035C15.5032 28.3644 15.6554 28.3644 15.7878 28.3035L18.9773 26.8401C21.242 25.798 23.1612 24.1292 24.5081 22.031C25.8547 19.933 26.5728 17.4933 26.5773 15.0001L26.5773 6.96242ZM25.5773 15.0001C25.5735 17.3017 24.911 19.5541 23.6679 21.491C22.425 23.428 20.6534 24.9689 18.5628 25.9314L15.5773 27.2999L12.5918 25.9314C10.5012 24.9689 8.7295 23.428 7.48664 21.491C6.24356 19.554 5.58104 17.3015 5.57727 15.0001V7.28356L15.5773 2.70007L25.5773 7.28356V15.0001Z" fill="#EFEFEF"/>
<path d="M31.011 24.7766L26.9081 20.6737V20.6734C27.6766 18.8806 28.0746 16.9507 28.0775 15V6C28.0775 5.80446 27.9637 5.62701 27.786 5.54554L15.786 0.0455357C15.6536 -0.0151786 15.5014 -0.0151786 15.369 0.0455357L3.36901 5.54554C3.19133 5.62701 3.07749 5.80446 3.07749 6V15C3.08062 16.9507 3.47816 18.8806 4.24647 20.6734L0.146466 24.7763V24.7766C0.0203513 24.9025 -0.0289802 25.0862 0.0167798 25.2585C0.0625387 25.4306 0.196466 25.5656 0.368563 25.6125L3.98308 26.5971L4.96765 30.2116L4.96743 30.2114C5.01497 30.3828 5.14957 30.516 5.32144 30.5614C5.36341 30.5727 5.40649 30.5786 5.45001 30.5783C5.5826 30.5783 5.70961 30.5257 5.80336 30.4319L9.31942 26.9158C10.0241 27.4105 10.7716 27.8413 11.5529 28.2029L15.3714 29.9529C15.5038 30.0136 15.656 30.0136 15.7884 29.9529L19.6069 28.2029C20.3882 27.8413 21.1357 27.4105 21.8404 26.9158L25.3564 30.4319C25.4502 30.5257 25.5774 30.5783 25.71 30.5783C25.7533 30.5786 25.7966 30.5727 25.8384 30.5614C26.0102 30.5161 26.1451 30.3828 26.1924 30.2114L27.177 26.5969L30.7915 25.6123V25.6125C30.9633 25.5656 31.0975 25.4306 31.1432 25.2585C31.189 25.0862 31.1395 24.9025 31.0133 24.7766H31.011ZM5.70356 29.117L4.87007 26.0585C4.82342 25.8882 4.69039 25.7552 4.52007 25.7085L1.4607 24.8739L4.69864 21.636C5.62921 23.4429 6.92721 25.0355 8.50916 26.3114L5.70356 29.117ZM19.1881 27.2949L15.5776 28.95L11.9671 27.2951V27.2949C9.61556 26.2125 7.6231 24.4794 6.22539 22.3007C4.82739 20.1221 4.08207 17.5886 4.07784 15.0001V6.32126L15.5778 1.05028L27.0778 6.32126V15.0001C27.0736 17.5887 26.3285 20.1222 24.9303 22.3007C23.5323 24.4795 21.5399 26.2125 19.1886 27.2949L19.1881 27.2949ZM26.6384 25.7074C26.4681 25.7542 26.3351 25.8873 26.2884 26.0574L25.4549 29.1158L22.6493 26.3102V26.3104C24.2315 25.0343 25.5292 23.4419 26.4598 21.635L29.6978 24.873L26.6384 25.7074Z" fill="#EFEFEF"/>
<path d="M7.57727 14.7896C7.57727 16.9112 8.42013 18.946 9.92036 20.4465C11.4208 21.9467 13.4556 22.7896 15.5773 22.7896C17.6989 22.7896 19.7337 21.9467 21.2342 20.4465C22.7344 18.946 23.5773 16.9112 23.5773 14.7896C23.5773 12.6679 22.7344 10.6331 21.2342 9.13264C19.7337 7.63241 17.6989 6.78955 15.5773 6.78955C13.4563 6.79201 11.423 7.63578 9.92327 9.13555C8.4235 10.6353 7.57973 12.6686 7.57727 14.7896ZM22.5773 14.7896C22.5773 16.646 21.8398 18.4266 20.527 19.7393C19.2143 21.0521 17.4337 21.7896 15.5773 21.7896C13.7208 21.7896 11.9402 21.0521 10.6275 19.7393C9.31476 18.4266 8.57727 16.646 8.57727 14.7896C8.57727 12.9331 9.31476 11.1525 10.6275 9.83978C11.9402 8.52704 13.7208 7.78955 15.5773 7.78955C17.4331 7.79156 19.2125 8.52972 20.5248 9.84201C21.8371 11.1543 22.5753 12.9337 22.5773 14.7896Z" fill="white"/>
<path d="M15.7705 18.1416C15.4808 18.1416 15.1667 18.1074 14.8281 18.0391C14.4896 17.974 14.1608 17.8747 13.8418 17.7412C13.5228 17.6045 13.2331 17.4352 12.9727 17.2334C12.7122 17.0316 12.5153 16.7939 12.3818 16.5205L14.125 15.6953C14.125 15.9199 14.1706 16.1315 14.2617 16.3301C14.3561 16.5254 14.4798 16.6963 14.6328 16.8428C14.7858 16.9893 14.96 17.1048 15.1553 17.1895C15.3538 17.2741 15.5589 17.3164 15.7705 17.3164C15.9723 17.3164 16.1693 17.2871 16.3613 17.2285C16.5534 17.1667 16.7227 17.0771 16.8691 16.96C17.0189 16.8428 17.1393 16.6995 17.2305 16.5303C17.3216 16.3577 17.3672 16.1608 17.3672 15.9395C17.3672 15.6953 17.3249 15.487 17.2402 15.3145C17.1589 15.1387 17.0449 14.9954 16.8984 14.8848C16.7552 14.7741 16.5859 14.6927 16.3906 14.6406C16.1986 14.5885 15.9919 14.5625 15.7705 14.5625H14.8184V13.7324H15.7705C15.9235 13.7324 16.0716 13.7129 16.2148 13.6738C16.3613 13.6348 16.4899 13.5745 16.6006 13.4932C16.7145 13.4118 16.8057 13.3109 16.874 13.1904C16.9424 13.0667 16.9766 12.9235 16.9766 12.7607C16.9766 12.5785 16.9456 12.4255 16.8838 12.3018C16.8219 12.1781 16.7357 12.0788 16.625 12.0039C16.5176 11.9258 16.3906 11.8704 16.2441 11.8379C16.0977 11.8021 15.9398 11.7842 15.7705 11.7842C15.6077 11.7842 15.4499 11.8053 15.2969 11.8477C15.1439 11.89 15.0088 11.9535 14.8916 12.0381C14.7744 12.1227 14.68 12.2301 14.6084 12.3604C14.5368 12.4873 14.501 12.637 14.501 12.8096L13.1094 11.7891C13.2461 11.6198 13.4219 11.4749 13.6367 11.3545C13.8516 11.234 14.0811 11.138 14.3252 11.0664C14.5726 10.9915 14.8216 10.9378 15.0723 10.9053C15.3262 10.8695 15.5589 10.8516 15.7705 10.8516C15.9658 10.8516 16.1725 10.863 16.3906 10.8857C16.612 10.9053 16.8301 10.9411 17.0449 10.9932C17.2598 11.0452 17.4665 11.1152 17.665 11.2031C17.8636 11.291 18.0378 11.4017 18.1875 11.5352C18.3372 11.6686 18.4561 11.8281 18.5439 12.0137C18.6351 12.1992 18.6807 12.4157 18.6807 12.6631C18.6807 12.8128 18.6481 12.9593 18.583 13.1025C18.5179 13.2425 18.4333 13.3727 18.3291 13.4932C18.2249 13.6136 18.1061 13.721 17.9727 13.8154C17.8392 13.9066 17.7041 13.9782 17.5674 14.0303C17.7952 14.0791 18.0133 14.1605 18.2217 14.2744C18.43 14.3851 18.6123 14.5234 18.7686 14.6895C18.9281 14.8522 19.0534 15.0394 19.1445 15.251C19.2389 15.4626 19.2861 15.6921 19.2861 15.9395C19.2861 16.2552 19.2324 16.5303 19.125 16.7646C19.0208 16.9958 18.8792 17.1927 18.7002 17.3555C18.5244 17.5182 18.3177 17.6517 18.0801 17.7559C17.8457 17.8568 17.5983 17.9365 17.3379 17.9951C17.0775 18.0505 16.8122 18.0879 16.542 18.1074C16.2718 18.1302 16.0146 18.1416 15.7705 18.1416Z" fill="white"/>
</svg>
