<svg width="40" height="40" viewBox="0 0 40 40" fill="none" xmlns="http://www.w3.org/2000/svg">
<path d="M32.9667 31.5315L28.9674 22.9552C30.7726 20.9415 31.8727 18.2836 31.8727 15.3734C31.8729 9.102 26.7709 4 20.4999 4C14.2289 4 9.12719 9.10175 9.12719 15.3734C9.12719 18.2842 10.2278 20.9416 12.0325 22.9552L8.03313 31.5315C7.98551 31.6335 7.9895 31.7525 8.04335 31.8509C8.09746 31.9494 8.19545 32.0165 8.30715 32.031L12.7963 32.6224L16.1349 35.6813C16.2007 35.7411 16.286 35.7738 16.3735 35.7738C16.3965 35.7738 16.4197 35.7718 16.4426 35.7671C16.5526 35.7451 16.6461 35.6718 16.6937 35.5701L20.5001 27.4068L24.3065 35.5701C24.3542 35.6718 24.4472 35.7451 24.5576 35.7671C24.5806 35.7718 24.6038 35.7738 24.6267 35.7738C24.714 35.7738 24.7995 35.7411 24.8653 35.6808L28.204 32.6219L32.6933 32.0307C32.8046 32.0165 32.9025 31.9492 32.9566 31.8507C33.0105 31.752 33.0145 31.6335 32.9669 31.5315H32.9667ZM20.4999 4.70661C26.3816 4.70661 31.1667 9.49169 31.1667 15.3734C31.1667 21.2551 26.3816 26.0395 20.4999 26.0395C14.6182 26.0395 9.83316 21.255 9.83316 15.3734C9.83316 9.49169 14.6182 4.70661 20.4999 4.70661ZM16.2569 34.8354L13.1916 32.0261C13.138 31.9772 13.0709 31.9458 12.9988 31.9363L8.8765 31.3935L12.5567 23.5015C14.5046 25.4052 17.1306 26.6165 20.0339 26.7342L16.2569 34.8354ZM28.0005 31.9369C27.9287 31.9461 27.8614 31.9773 27.8083 32.0266L24.7424 34.8359L20.9649 26.7345C23.869 26.6171 26.4948 25.4061 28.4421 23.5018L32.1223 31.3939L28.0005 31.9369Z" fill="#EFEFEF"/>
<path d="M20.4999 23.4483C16.0472 23.4483 12.4247 19.8257 12.4247 15.3731C12.4247 15.1781 12.5828 15.02 12.7778 15.02C12.9727 15.02 13.1308 15.1781 13.1308 15.3731C13.1308 19.436 16.4366 22.7424 20.5001 22.7424C20.6951 22.7424 20.8532 22.9004 20.8532 23.0954C20.8534 23.2909 20.6953 23.4487 20.5003 23.4487L20.4999 23.4483Z" fill="#EFEFEF"/>
<path d="M28.2222 15.7253C28.0272 15.7253 27.8691 15.5672 27.8691 15.3723C27.8691 11.3088 24.5634 8.003 20.4999 8.003C20.3049 8.003 20.1468 7.84491 20.1468 7.64994C20.1468 7.45495 20.3049 7.29688 20.4999 7.29688C24.9526 7.29688 28.5751 10.9195 28.5751 15.3721C28.5749 15.5669 28.4168 15.7249 28.2218 15.7249L28.2222 15.7253Z" fill="#EFEFEF"/>
<path d="M23.5566 17.3984H23.0684V19H21.1299V17.3984H17.1113C17.1992 17.0241 17.3132 16.6416 17.4531 16.251C17.5931 15.8604 17.751 15.4746 17.9268 15.0938C18.1058 14.7129 18.2995 14.3402 18.5078 13.9756C18.7161 13.611 18.9342 13.2676 19.1621 12.9453H20.5146C20.2347 13.4108 20.0003 13.8568 19.8115 14.2832C19.626 14.7096 19.4762 15.0889 19.3623 15.4209C19.2288 15.8083 19.1247 16.1696 19.0498 16.5049H21.1299V11.9688H23.0684V16.5049H23.5566V17.3984Z" fill="white"/>
</svg>
