<svg width="32" height="32" viewBox="0 0 32 32" fill="none" xmlns="http://www.w3.org/2000/svg">
<path d="M24.6267 22.4399L25.1467 26.6532C25.28 27.7598 24.0933 28.5331 23.1467 27.9598L17.56 24.6398C16.9467 24.6398 16.3467 24.5999 15.76 24.5199C16.7467 23.3599 17.3333 21.8931 17.3333 20.3065C17.3333 16.5198 14.0533 13.4532 9.99999 13.4532C8.45332 13.4532 7.02666 13.8932 5.84 14.6665C5.8 14.3332 5.78665 13.9998 5.78665 13.6532C5.78665 7.58649 11.0533 2.6665 17.56 2.6665C24.0667 2.6665 29.3333 7.58649 29.3333 13.6532C29.3333 17.2532 27.48 20.4399 24.6267 22.4399Z" stroke="#292D32" stroke-width="1.5" stroke-linecap="round" stroke-linejoin="round"/>
<path d="M17.3334 20.3064C17.3334 21.8931 16.7467 23.3598 15.76 24.5198C14.44 26.1198 12.3467 27.1464 10 27.1464L6.52002 29.213C5.93335 29.573 5.18668 29.0797 5.26668 28.3997L5.60002 25.7731C3.81335 24.5331 2.66669 22.5464 2.66669 20.3064C2.66669 17.9597 3.92003 15.8931 5.84003 14.6664C7.02669 13.8931 8.45335 13.4531 10 13.4531C14.0534 13.4531 17.3334 16.5197 17.3334 20.3064Z" stroke="#292D32" stroke-width="1.5" stroke-linecap="round" stroke-linejoin="round"/>
<path d="M11.9733 20.6133H8" stroke="#292D32" stroke-width="1.5" stroke-miterlimit="10" stroke-linecap="round" stroke-linejoin="round"/>
<path d="M9.98666 18.6665V22.6532" stroke="#292D32" stroke-width="1.5" stroke-miterlimit="10" stroke-linecap="round" stroke-linejoin="round"/>
</svg>
