<svg width="14" height="13" viewBox="0 0 14 13" fill="none" xmlns="http://www.w3.org/2000/svg">
<path d="M12.61 5.5298C12.32 5.3898 12.04 5.2498 11.77 5.0898C11.55 4.9598 11.34 4.8198 11.13 4.6698C10.96 4.5598 10.76 4.3998 10.57 4.2398C10.55 4.2298 10.48 4.1698 10.4 4.0898C10.07 3.8098 9.70001 3.4498 9.37001 3.0498C9.34001 3.0298 9.29001 2.9598 9.22001 2.8698C9.12001 2.7498 8.95001 2.5498 8.80001 2.3198C8.68001 2.1698 8.54001 1.9498 8.41001 1.7298C8.25001 1.4598 8.11001 1.1898 7.97001 0.909804C7.94883 0.864409 7.92833 0.819243 7.90845 0.774341C7.76088 0.441023 7.32624 0.343577 7.06848 0.601334L1.34001 6.3298C1.21001 6.4598 1.09001 6.7098 1.06001 6.8798L0.520014 10.7098C0.420014 11.3898 0.610014 12.0298 1.03001 12.4598C1.39001 12.8098 1.89001 12.9998 2.43001 12.9998C2.55001 12.9998 2.67001 12.9898 2.79001 12.9698L6.63001 12.4298C6.81001 12.3998 7.06001 12.2798 7.18001 12.1498L12.9013 6.42849C13.1609 6.16894 13.063 5.72348 12.7254 5.57942C12.6874 5.5632 12.6489 5.54667 12.61 5.5298Z" fill="#3F3F3F"/>
</svg>
