<svg width="40" height="17" viewBox="0 0 40 17" fill="none" xmlns="http://www.w3.org/2000/svg">
<path d="M5.1955 15.12C4.4275 15.12 3.71283 14.928 3.0515 14.544C2.39017 14.16 1.8675 13.6373 1.4835 12.976C1.0995 12.3253 0.9075 11.6107 0.9075 10.832V8.096H2.8595V10.832C2.8595 11.2587 2.96083 11.6533 3.1635 12.016C3.37683 12.3787 3.6595 12.6613 4.0115 12.864C4.37417 13.0773 4.76883 13.184 5.1955 13.184H7.8035C7.9955 13.184 8.1555 13.1147 8.2835 12.976C8.4115 12.848 8.4755 12.6933 8.4755 12.512V0.815999L10.4115 0.832V12.88C10.4115 13.2853 10.3102 13.6587 10.1075 14C9.90483 14.3413 9.63283 14.6133 9.2915 14.816C8.95017 15.0187 8.57683 15.12 8.1715 15.12H5.1955ZM15.3903 12C14.9209 12 14.4836 11.8827 14.0783 11.648C13.6729 11.4133 13.3529 11.0933 13.1183 10.688C12.8836 10.2827 12.7663 9.84533 12.7663 9.376V0.815999H14.7023V9.376C14.7023 9.568 14.7663 9.73333 14.8943 9.872C15.0329 10 15.1983 10.064 15.3903 10.064H16.1102V12H15.3903ZM29.2491 8.672C29.2491 9.30133 29.0945 9.872 28.7851 10.384C28.4865 10.8853 28.0758 11.28 27.5531 11.568C27.0305 11.856 26.4598 12 25.8411 12C24.8065 12 24.0065 11.6373 23.4411 10.912C23.1105 11.2853 22.7318 11.5627 22.3051 11.744C21.8785 11.9147 21.3931 12 20.8491 12C20.4438 12 20.0598 11.9253 19.6971 11.776C19.3345 11.616 19.0145 11.3973 18.7371 11.12C18.5238 11.3867 18.2571 11.6 17.9371 11.76C17.6278 11.92 17.2918 12 16.9291 12H15.9211C15.6545 12 15.4251 11.9093 15.2331 11.728C15.0411 11.536 14.9451 11.3067 14.9451 11.04C14.9451 10.784 15.0411 10.56 15.2331 10.368C15.4251 10.176 15.6545 10.08 15.9211 10.08H16.9291C17.1105 10.08 17.2651 10.016 17.3931 9.888C17.5318 9.74933 17.6011 9.58933 17.6011 9.408V5.824H19.5051V8.736C19.5051 9.13067 19.6385 9.456 19.9051 9.712C20.1825 9.95733 20.5345 10.08 20.9611 10.08C21.4198 10.08 21.7878 9.94667 22.0651 9.68C22.3425 9.41333 22.4811 9.07733 22.4811 8.672V5.824H24.4011V8.736C24.4011 9.13067 24.5291 9.45067 24.7851 9.696C25.0518 9.94133 25.4038 10.064 25.8411 10.064C26.2998 10.064 26.6625 9.936 26.9291 9.68C27.1958 9.41333 27.3291 9.07733 27.3291 8.672V4.272H29.2491V8.672ZM34.5399 11.616C34.5399 12.8747 34.1985 13.8613 33.5159 14.576C32.8439 15.3013 31.8999 15.7013 30.6839 15.776L29.9799 13.952C30.9185 13.8667 31.5905 13.6533 31.9959 13.312C32.4119 12.9813 32.6199 12.416 32.6199 11.616V4.272H34.5399V11.616ZM36.6688 0.832H38.6048V11.968H36.6688V0.832ZM35.9967 16.144V15.152H36.5408C36.4234 14.928 36.3701 14.704 36.3808 14.48C36.4341 14.0853 36.6048 13.7493 36.8928 13.472C37.1808 13.2053 37.5274 13.072 37.9328 13.072C38.2848 13.072 38.5888 13.1627 38.8448 13.344C39.1114 13.536 39.3034 13.7867 39.4208 14.096L38.6528 14.656C38.5674 14.4533 38.4714 14.304 38.3648 14.208C38.2581 14.112 38.1141 14.064 37.9328 14.064C37.7834 14.064 37.6554 14.112 37.5488 14.208C37.4421 14.3147 37.3888 14.4373 37.3888 14.576C37.3888 14.7147 37.4314 14.8427 37.5168 14.96C37.6128 15.088 37.7514 15.152 37.9328 15.152H39.4048V16.144H35.9967Z" fill="#4F98CA"/>
</svg>
