<svg width="15" height="13" viewBox="0 0 15 13" fill="none" xmlns="http://www.w3.org/2000/svg">
<path fill-rule="evenodd" clip-rule="evenodd" d="M11.5585 7.67324L13.9413 2.83382C13.981 2.74554 14.0724 2.68683 14.1747 2.69308C14.3066 2.70123 14.4069 2.81518 14.3988 2.9471L13.9413 9.85881H0.457585L0.00044199 2.9471C-0.00525001 2.85357 0.0443047 2.76138 0.133476 2.71752C0.252002 2.65915 0.395753 2.7077 0.454133 2.82622L2.84073 7.67337L3.02689 3.5248C3.03147 3.42256 3.10178 3.33071 3.2058 3.3037C3.33359 3.27067 3.46428 3.34734 3.49743 3.47513L4.56963 7.61942L6.97151 0.166273C6.99439 0.0951789 7.04997 0.0359161 7.12631 0.0114732C7.2522 -0.0288182 7.38714 0.0403789 7.42731 0.166273L9.8292 7.61942L10.8996 3.48256C10.9228 3.37977 11.0125 3.30097 11.1226 3.29618C11.2545 3.29048 11.3664 3.39294 11.3721 3.52486L11.5582 7.67343L11.5585 7.67324ZM0.922219 8.01733C0.914071 7.88541 1.01441 7.77146 1.14633 7.76331C1.27825 7.75517 1.3922 7.8555 1.40034 7.98742L1.45514 8.81879H2.02266C2.15514 8.81879 2.26261 8.92627 2.26261 9.05875C2.26261 9.19122 2.15514 9.2987 2.02266 9.2987H1.23103C1.10558 9.29814 0.999668 9.2006 0.991968 9.07359L0.922213 8.01722L0.922219 8.01733ZM2.74476 9.29882C2.61228 9.29882 2.50481 9.19134 2.50481 9.05886C2.50481 8.92638 2.61228 8.81891 2.74476 8.81891H2.99532C3.1278 8.81891 3.23527 8.92638 3.23527 9.05886C3.23527 9.19134 3.1278 9.29882 2.99532 9.29882H2.74476ZM13.9096 10.339L13.8058 11.9073C13.8055 12.0394 13.6981 12.1466 13.5659 12.1466H0.833299C0.707853 12.146 0.601936 12.0485 0.594236 11.9215L0.489548 10.339L13.9096 10.339Z" fill="#FFD700"/>
</svg>
